<svg width="1200px" height="1200px" viewBox="0 0 1200 1200" xmlns="http://www.w3.org/2000/svg" xmlns:xlink="http://www.w3.org/1999/xlink">
  <g id="178c9ee9-1302-4d1f-88be-93932b3952bd">
<g style="">
		<g id="d508518c-f39f-4f2e-973d-bc269a166705">
<path style="stroke: rgb(193,193,193); stroke-width: 0; stroke-dasharray: none; stroke-linecap: butt; stroke-dashoffset: 0; stroke-linejoin: miter; stroke-miterlimit: 4; fill: rgb(255,192,0); fill-rule: nonzero; opacity: 1;" transform="matrix(2.701609 0 0 2.701575 589.028757 580.439622) matrix(1 0 0 1 58.455 47.845)  translate(-261.69, -252.02)" d="M 337.43 97.19 L 340.06 97.22 L 344.97 97.33 L 346.15 97.37 L 348.34 97.46 L 349.39 97.51 L 351.28 97.61 L 352.18 97.67 L 353.71 97.80 L 355.50 98.01 L 357.07 98.25 L 360.09 98.91 L 361.57 99.27 L 364.42 100.18 L 365.82 100.66 L 368.50 101.83 L 369.82 102.44 L 372.34 103.87 L 373.58 104.61 L 375.95 106.31 L 377.12 107.19 L 379.34 109.17 L 380.43 110.19 L 382.51 112.45 L 383.54 113.61 L 385.48 116.16 L 386.43 117.47 L 388.24 120.32 L 389.13 121.78 L 390.82 124.94 L 391.64 126.56 L 393.20 130.02 L 393.97 131.80 L 395.42 135.59 L 396.13 137.52 L 397.46 141.64 L 398.11 143.74 L 399.34 148.19 L 399.95 150.46 L 401.07 155.25 L 402.66 162.83 L 402.94 164.28 L 403.42 166.90 L 403.64 168.17 L 404.02 170.54 L 404.37 172.87 L 404.83 177.38 L 404.93 178.54 L 405.08 180.98 L 405.14 182.24 L 405.24 184.99 L 405.28 186.41 L 405.33 189.59 L 405.37 195.00 L 405.38 197.43 L 405.34 201.84 L 405.30 203.99 L 405.16 207.94 L 405.00 211.82 L 404.28 218.89 L 404.06 220.66 L 403.50 224.22 L 403.20 226.02 L 402.47 229.78 L 402.08 231.70 L 401.15 235.81 L 399.50 242.55 L 398.79 245.38 L 397.04 250.65 L 396.11 253.22 L 393.93 257.97 L 392.78 260.29 L 390.16 264.53 L 388.79 266.59 L 385.72 270.33 L 384.12 272.14 L 380.59 275.39 L 378.77 276.96 L 374.77 279.73 L 372.72 281.05 L 368.25 283.35 L 361.00 286.28 L 360.20 286.55 L 358.68 287.00 L 357.89 287.21 L 355.90 287.56 L 355.34 287.63 L 354.03 287.78 L 353.33 287.84 L 351.66 287.97 L 350.78 288.03 L 348.69 288.13 L 347.58 288.18 L 344.98 288.27 L 343.61 288.31 L 340.41 288.39 L 338.74 288.42 L 334.86 288.49 L 332.84 288.52 L 328.21 288.58 L 325.79 288.61 L 320.32 288.67 L 317.47 288.69 L 311.08 288.74 L 307.76 288.77 L 300.36 288.82 L 298.45 288.84 L 294.41 288.86 L 292.36 288.88 L 288.04 288.90 L 285.85 288.92 L 281.25 288.95 L 274.00 288.99 L 193.50 289.50 L 192.93 311.00 L 289.00 311.00 L 288.97 333.75 L 288.96 335.72 L 288.94 339.39 L 288.93 341.18 L 288.89 344.52 L 288.86 346.15 L 288.79 349.19 L 288.75 350.67 L 288.65 353.42 L 288.54 356.11 L 288.22 360.72 L 288.04 362.91 L 287.55 366.68 L 287.29 368.48 L 286.61 371.59 L 286.25 373.08 L 285.36 375.71 L 284.88 376.98 L 283.74 379.31 L 281.74 382.66 L 280.92 383.89 L 278.94 386.18 L 277.89 387.30 L 275.45 389.39 L 274.17 390.41 L 271.23 392.31 L 269.70 393.23 L 266.26 394.94 L 264.46 395.77 L 260.48 397.31 L 258.42 398.06 L 253.87 399.43 L 251.52 400.10 L 246.39 401.32 L 238.00 403.00 L 236.68 403.23 L 233.42 403.71 L 231.71 403.96 L 227.84 404.44 L 223.88 404.91 L 215.31 405.75 L 213.20 405.94 L 209.16 406.26 L 207.18 406.41 L 203.62 406.64 L 201.92 406.74 L 199.10 406.84 L 198.45 406.85 L 197.35 406.86 L 196.00 406.82 L 195.66 406.80 L 194.71 406.73 L 194.21 406.70 L 193.06 406.62 L 191.88 406.53 L 189.50 406.35 L 187.02 406.15 L 181.66 405.57 L 178.96 405.26 L 173.53 404.50 L 170.86 404.10 L 165.89 403.24 L 164.70 403.02 L 162.49 402.58 L 159.50 401.91 L 156.84 401.27 L 151.81 399.56 L 149.35 398.64 L 144.76 396.39 L 142.52 395.20 L 138.41 392.45 L 136.41 391.02 L 132.81 387.80 L 131.07 386.14 L 128.02 382.50 L 126.57 380.63 L 124.10 376.59 L 122.95 374.53 L 121.11 370.14 L 119.11 363.20 L 119.01 362.77 L 118.85 361.16 L 118.77 360.23 L 118.63 357.64 L 118.56 356.23 L 118.44 352.68 L 118.38 350.79 L 118.28 346.30 L 118.24 343.94 L 118.16 338.52 L 118.12 335.70 L 118.07 329.37 L 118.05 326.10 L 118.02 318.87 L 118.00 307.06 L 118.00 304.07 L 118.00 298.60 L 118.00 295.95 L 118.01 291.12 L 118.01 288.77 L 118.02 284.53 L 118.03 282.48 L 118.05 278.79 L 118.06 277.00 L 118.08 273.80 L 118.10 272.26 L 118.14 269.52 L 118.16 268.20 L 118.20 265.86 L 118.23 264.74 L 118.29 262.76 L 118.32 261.81 L 118.40 260.15 L 118.44 259.35 L 118.53 257.96 L 118.63 256.63 L 118.88 254.57 L 119.02 253.61 L 119.36 252.04 L 119.98 249.81 L 120.53 248.02 L 121.98 244.57 L 122.75 242.87 L 124.63 239.62 L 125.62 238.03 L 127.91 235.00 L 129.11 233.51 L 131.79 230.72 L 133.18 229.36 L 136.23 226.84 L 137.79 225.61 L 141.19 223.37 L 142.93 222.28 L 146.65 220.34 L 152.58 217.80 L 153.30 217.54 L 154.64 217.09 L 155.33 216.89 L 156.92 216.55 L 157.79 216.39 L 160.01 216.13 L 160.63 216.07 L 162.04 215.97 L 162.78 215.91 L 164.49 215.82 L 165.39 215.78 L 167.43 215.70 L 168.51 215.66 L 170.94 215.58 L 172.22 215.55 L 175.09 215.48 L 176.59 215.45 L 179.96 215.39 L 181.71 215.36 L 185.61 215.30 L 187.63 215.27 L 192.11 215.22 L 194.44 215.19 L 199.55 215.12 L 208.00 215.03 L 257.50 214.45 L 265.46 211.66 L 267.92 210.80 L 272.64 208.64 L 274.97 207.50 L 279.40 204.79 L 281.58 203.38 L 285.68 200.18 L 287.69 198.52 L 291.41 194.87 L 293.23 192.99 L 296.54 188.93 L 298.13 186.86 L 300.98 182.43 L 302.35 180.18 L 304.69 175.43 L 307.60 168.00 L 307.79 167.42 L 308.12 166.16 L 308.27 165.50 L 308.54 163.97 L 308.67 163.15 L 308.88 161.18 L 308.99 160.13 L 309.16 157.56 L 309.25 156.19 L 309.40 152.88 L 309.47 151.11 L 309.59 146.88 L 309.62 145.76 L 309.68 143.32 L 309.71 142.06 L 309.77 139.33 L 309.80 137.93 L 309.86 134.91 L 309.95 130.00 L 310.50 97.50 L 329.50 97.22 L 332.11 97.18 M 250.46 332.24 L 248.43 332.56 L 247.42 332.76 L 245.47 333.44 L 244.51 333.82 L 242.70 334.86 L 241.83 335.41 L 240.26 336.78 L 238.25 339.19 L 237.59 340.19 L 236.64 342.29 L 236.22 343.35 L 235.75 345.52 L 235.57 346.60 L 235.57 348.77 L 235.62 349.85 L 236.06 351.95 L 236.33 352.99 L 237.20 354.96 L 237.69 355.92 L 238.97 357.69 L 239.66 358.55 L 241.34 360.06 L 244.27 361.96 L 245.54 362.61 L 248.28 363.36 L 249.66 363.65 L 252.46 363.70 L 253.84 363.63 L 256.44 362.99 L 257.70 362.59 L 259.86 361.27 L 261.05 360.39 L 262.98 358.40 L 263.87 357.37 L 265.21 355.15 L 265.81 354.02 L 266.55 351.65 L 266.85 350.46 L 267.01 348.02 L 267.02 346.81 L 266.58 344.40 L 266.29 343.21 L 265.27 340.91 L 264.68 339.78 L 263.07 337.67 L 259.98 334.82 L 259.16 334.21 L 257.37 333.33 L 256.45 332.95 L 254.50 332.48 L 253.51 332.30 L 251.48 332.23 Z" stroke-linecap="round"/>
</g>
		<g id="9db90959-b4a8-4457-ab91-786cb1ebc6cd">
<path style="stroke: rgb(193,193,193); stroke-width: 0; stroke-dasharray: none; stroke-linecap: butt; stroke-dashoffset: 0; stroke-linejoin: miter; stroke-miterlimit: 4; fill: rgb(2,119,189); fill-rule: nonzero; opacity: 1;" transform="matrix(2.701609 0 0 2.701575 589.028757 580.439622) matrix(1 0 0 1 -58.2 -48.1)  translate(-145.035, -156.075)" d="M 49.77 309.93 L 47.96 309.66 L 44.44 308.73 L 42.69 308.21 L 39.30 306.78 L 37.62 306.01 L 34.39 304.11 L 32.80 303.10 L 29.75 300.74 L 28.26 299.51 L 25.43 296.71 L 24.04 295.26 L 21.45 292.06 L 20.19 290.40 L 17.87 286.81 L 14.71 280.99 L 14.06 279.64 L 12.79 276.65 L 12.16 275.12 L 10.95 271.80 L 10.35 270.10 L 9.20 266.49 L 8.63 264.65 L 7.55 260.79 L 6.50 256.87 L 4.67 248.45 L 2.43 235.29 L 2.04 232.47 L 1.52 226.43 L 1.30 223.35 L 1.13 216.89 L 1.09 213.63 L 1.25 206.93 L 1.37 203.57 L 1.85 196.80 L 2.12 193.42 L 2.91 186.74 L 3.34 183.43 L 4.41 177.00 L 4.99 173.84 L 6.34 167.84 L 8.67 159.50 L 9.43 157.14 L 11.26 152.71 L 12.23 150.55 L 14.49 146.50 L 15.67 144.52 L 18.35 140.85 L 19.75 139.07 L 22.84 135.78 L 24.45 134.19 L 27.96 131.29 L 29.77 129.90 L 33.69 127.39 L 35.71 126.19 L 40.04 124.08 L 47.00 121.36 L 47.64 121.15 L 49.10 120.79 L 49.91 120.62 L 52.10 120.34 L 52.72 120.28 L 54.18 120.16 L 54.96 120.10 L 56.79 120.00 L 57.75 119.95 L 60.01 119.85 L 61.19 119.81 L 63.94 119.73 L 65.39 119.69 L 68.69 119.62 L 70.42 119.58 L 74.36 119.52 L 76.41 119.48 L 81.03 119.43 L 83.44 119.40 L 88.81 119.34 L 91.60 119.31 L 97.80 119.26 L 101.01 119.23 L 108.10 119.18 L 111.76 119.15 L 119.80 119.10 L 133.00 119.01 L 213.50 118.50 L 213.50 108.00 L 213.50 97.50 L 165.75 97.24 L 118.00 96.98 L 118.01 72.24 L 118.01 68.84 L 118.09 62.12 L 118.14 58.83 L 118.32 52.86 L 118.36 51.44 L 118.47 48.87 L 118.52 47.63 L 118.64 45.48 L 118.71 44.46 L 118.84 42.81 L 119.04 41.00 L 119.37 38.95 L 120.34 35.18 L 120.88 33.34 L 122.31 29.95 L 123.09 28.31 L 125.00 25.29 L 126.02 23.83 L 128.45 21.15 L 129.72 19.86 L 132.68 17.50 L 134.22 16.36 L 137.74 14.29 L 139.57 13.29 L 143.67 11.49 L 150.50 9.06 L 152.74 8.37 L 157.87 7.09 L 160.53 6.48 L 166.33 5.37 L 169.29 4.83 L 175.54 3.92 L 178.69 3.48 L 185.15 2.77 L 188.39 2.45 L 194.83 1.98 L 198.03 1.77 L 204.25 1.56 L 207.30 1.49 L 213.05 1.55 L 220.90 1.99 L 225.09 2.38 L 232.86 3.42 L 236.64 3.99 L 243.48 5.35 L 245.12 5.72 L 248.22 6.49 L 249.73 6.89 L 252.54 7.74 L 253.90 8.17 L 256.41 9.08 L 259.82 10.53 L 261.69 11.41 L 265.24 13.50 L 266.98 14.60 L 270.23 17.10 L 271.81 18.39 L 274.73 21.24 L 276.15 22.70 L 278.70 25.85 L 279.92 27.46 L 282.06 30.86 L 283.07 32.58 L 284.76 36.18 L 285.55 38.00 L 286.75 41.76 L 287.98 47.50 L 288.02 47.81 L 288.10 48.64 L 288.14 49.10 L 288.22 50.22 L 288.29 51.41 L 288.42 54.55 L 288.49 56.24 L 288.60 60.27 L 288.65 62.38 L 288.74 67.13 L 288.78 69.59 L 288.85 74.91 L 288.88 77.63 L 288.92 83.36 L 288.96 89.17 L 288.98 101.36 L 288.97 107.45 L 288.90 119.26 L 288.88 122.13 L 288.82 127.58 L 288.78 130.24 L 288.70 135.17 L 288.65 137.55 L 288.55 141.79 L 288.49 143.81 L 288.37 147.22 L 288.30 148.80 L 288.16 151.20 L 288.12 151.73 L 288.04 152.58 L 287.91 153.52 L 287.61 155.18 L 286.66 158.44 L 286.13 160.07 L 284.77 163.24 L 284.04 164.80 L 282.29 167.84 L 281.37 169.34 L 279.26 172.21 L 278.16 173.62 L 275.72 176.28 L 274.45 177.58 L 271.71 180.00 L 270.30 181.17 L 267.28 183.31 L 262.47 186.16 L 260.96 186.95 L 258.44 188.24 L 257.22 188.84 L 254.87 189.80 L 253.67 190.24 L 250.95 190.92 L 250.23 191.07 L 248.62 191.34 L 247.78 191.47 L 245.89 191.69 L 244.90 191.79 L 242.67 191.97 L 241.51 192.05 L 238.87 192.19 L 237.49 192.26 L 234.37 192.37 L 232.75 192.42 L 229.08 192.51 L 227.18 192.56 L 222.90 192.63 L 220.68 192.67 L 215.73 192.74 L 213.16 192.77 L 207.46 192.84 L 198.00 192.95 L 148.50 193.52 L 141.27 196.15 L 139.93 196.64 L 137.49 197.60 L 136.31 198.09 L 134.13 199.08 L 132.00 200.08 L 128.19 202.38 L 126.31 203.61 L 122.58 206.63 L 121.63 207.45 L 119.63 209.30 L 116.43 212.41 L 114.33 214.51 L 110.81 218.51 L 109.15 220.49 L 106.35 224.46 L 105.02 226.47 L 102.76 230.71 L 99.77 237.66 L 99.26 239.02 L 98.56 241.71 L 98.40 242.47 L 98.15 244.27 L 98.03 245.24 L 97.84 247.66 L 97.75 248.98 L 97.59 252.27 L 97.56 253.16 L 97.49 255.14 L 97.46 256.17 L 97.40 258.45 L 97.37 259.63 L 97.31 262.24 L 97.28 263.59 L 97.22 266.57 L 97.20 268.10 L 97.14 271.47 L 97.05 277.00 L 96.50 310.50 L 76.00 310.64 L 73.18 310.66 L 67.59 310.62 L 64.85 310.60 L 59.84 310.49 L 58.65 310.45 L 56.48 310.38 L 55.44 310.34 L 53.61 310.25 L 52.75 310.20 L 51.34 310.09 L 50.69 310.04 M 163.86 73.27 L 165.05 72.39 L 166.98 70.40 L 167.87 69.37 L 169.21 67.15 L 169.81 66.02 L 170.55 63.65 L 170.85 62.46 L 171.01 60.02 L 171.02 58.81 L 170.58 56.40 L 170.29 55.21 L 169.27 52.91 L 168.68 51.78 L 167.07 49.67 L 163.98 46.82 L 163.01 46.10 L 160.82 45.12 L 159.69 44.70 L 157.23 44.32 L 155.99 44.20 L 153.39 44.43 L 149.44 45.47 L 148.65 45.77 L 147.22 46.52 L 146.53 46.92 L 145.29 47.85 L 144.10 48.81 L 142.27 51.17 L 141.45 52.41 L 140.39 55.15 L 139.95 56.55 L 139.65 59.47 L 139.60 60.94 L 140.08 63.84 L 140.41 65.27 L 141.67 67.94 L 142.40 69.23 L 144.44 71.48 L 145.00 72.01 L 146.27 72.94 L 148.40 74.15 L 149.65 74.73 L 152.38 75.39 L 153.77 75.64 L 156.57 75.64 L 157.95 75.56 L 160.54 74.93 L 161.78 74.53 Z" stroke-linecap="round"/>
</g>
</g>
</g>

  </svg>